<?xml version="1.0" encoding="UTF-8"?>
<svg width="131px" height="131px" viewBox="0 0 131 131" version="1.1" xmlns="http://www.w3.org/2000/svg" xmlns:xlink="http://www.w3.org/1999/xlink">
    <!-- Generator: Sketch 47.1 (45422) - http://www.bohemiancoding.com/sketch -->
    <title>19-web-coding</title>
    <desc>Created with Sketch.</desc>
    <defs></defs>
    <g id="study" stroke="none" stroke-width="1" fill="none" fill-rule="evenodd">
        <g id="MAIN---study" transform="translate(-1047.000000, -934.000000)">
            <g id="Group-11" transform="translate(0.000000, 689.000000)">
                <g id="Background" transform="translate(932.000000, 217.000000)">
                    <g id="19-web-coding" transform="translate(115.000000, 29.000000)">
                        <circle id="Oval" fill="#FFEC40" fill-rule="nonzero" cx="43.5" cy="86.5" r="43.5"></circle>
                        <g id="Group" transform="translate(2.000000, 0.000000)" stroke="#222829" stroke-width="2">
                            <g transform="translate(22.709677, 57.806452)" id="Shape">
                                <path d="M37.1612903,22.7096774 C37.1612903,26.1285161 34.3865806,28.9032258 30.9677419,28.9032258 L28.9032258,28.9032258 C25.4843871,28.9032258 22.7096774,26.1285161 22.7096774,22.7096774 L22.7096774,6.19354839 C22.7096774,2.77470968 25.4843871,0 28.9032258,0 L30.9677419,0 C34.3865806,0 37.1612903,2.77470968 37.1612903,6.19354839 L37.1612903,22.7096774 Z"></path>
                                <path d="M59.8709677,22.7096774 C59.8709677,26.1285161 57.0962581,28.9032258 53.6774194,28.9032258 L45.4193548,28.9032258 C45.4193548,28.9032258 45.4193548,26.1285161 45.4193548,22.7096774 L45.4193548,6.19354839 C45.4193548,2.77470968 45.4193548,0 45.4193548,0 L53.6774194,0 C57.0962581,0 59.8709677,2.77470968 59.8709677,6.19354839 L59.8709677,22.7096774 Z"></path>
                                <path d="M84.6451613,28.9032258 L70.1935484,28.9032258 C69.051871,28.9032258 68.1290323,27.9803871 68.1290323,26.8387097 L68.1290323,2.06451613 C68.1290323,0.92283871 69.051871,0 70.1935484,0 L84.6451613,0"></path>
                                <path d="M68.1290323,14.4516129 L80.516129,14.4516129"></path>
                                <path d="M14.4516129,22.7096774 L14.4516129,24.7741935 C14.4516129,27.0534194 12.6018065,28.9032258 10.3225806,28.9032258 L4.12903226,28.9032258 C1.84774194,28.9032258 0,27.0534194 0,24.7741935 L0,4.12903226 C0,1.84980645 1.84774194,0 4.12903226,0 L10.3225806,0 C12.6018065,0 14.4516129,1.84980645 14.4516129,4.12903226 L14.4516129,6.19354839"></path>
                            </g>
                            <rect id="Rectangle-path" x="0" y="0" width="128" height="128"></rect>
                            <path d="M0,16.516129 L128,16.516129" id="Shape"></path>
                            <path d="M6.19354839,8.25806452 L10.3225806,8.25806452" id="Shape"></path>
                            <path d="M14.4516129,8.25806452 L18.5806452,8.25806452" id="Shape"></path>
                            <path d="M22.7096774,8.25806452 L26.8387097,8.25806452" id="Shape"></path>
                            <path d="M33.0322581,0 L33.0322581,16.516129" id="Shape"></path>
                            <path d="M39.2258065,8.25806452 L121.806452,8.25806452" id="Shape"></path>
                            <rect id="Rectangle-path" x="8.25806452" y="24.7741935" width="111.483871" height="94.9677419"></rect>
                            <path d="M53.6774194,45.4193548 L57.8064516,45.4193548" id="Shape"></path>
                            <path d="M61.9354839,45.4193548 L66.0645161,45.4193548" id="Shape"></path>
                            <path d="M70.1935484,45.4193548 L74.3225806,45.4193548" id="Shape"></path>
                            <path d="M53.6774194,99.0967742 L57.8064516,99.0967742" id="Shape"></path>
                            <path d="M61.9354839,99.0967742 L66.0645161,99.0967742" id="Shape"></path>
                            <path d="M70.1935484,99.0967742 L74.3225806,99.0967742" id="Shape"></path>
                        </g>
                    </g>
                </g>
            </g>
        </g>
    </g>
</svg>